<svg xmlns="http://www.w3.org/2000/svg" viewBox="0 0 24 24" fill="#f43f5e">
    <path fill-rule="evenodd" d="M12 2.25c-5.385 0-9.75 4.365-9.75 9.75s4.365 9.75 9.75 9.75 9.75-4.365 9.75-9.75S17.385 2.25 12 2.25ZM9.854 9.175a.75.75 0 0 0 1.06 0 6 6 0 0 1 7.086 7.086.75.75 0 1 0 1.06 1.06 7.5 7.5 0 0 0-8.146-8.146.75.75 0 0 0 0 1.06Zm-2.018-.49a.75.75 0 0 0-1.06 0 7.5 7.5 0 0 0 8.146 8.146.75.75 0 1 0 1.06-1.06 6 6 0 0 1-7.086-7.086.75.75 0 0 0 0-1.06Zm4.31-2.943a.75.75 0 0 0 0 1.06 6 6 0 0 1 7.086 7.086.75.75 0 1 0 1.06 1.06 7.5 7.5 0 0 0-8.146-8.146.75.75 0 0 0-.001 1.061Z" clip-rule="evenodd" />
</svg>
